# AST/ASF file generated using VICON BodyLanguage
# -----------------------------------------------
:version 1.10
:name VICON
:units
  mass 1.0
  length 0.45
  angle deg
:documentation
   .ast/.asf automatically generated from VICON data using
   VICON BodyBuilder and BodyLanguage model FoxedUp or BRILLIANT.MOD
:root
   order TX TY TZ RX RY RZ
   axis XYZ
   position 0 0 0  
   orientation 0 0 0 
:bonedata
  begin
     id 1 
     name lhipjoint
     direction 0.573633 -0.743009 0.344793 
     length 2.46257 
     axis 0 0 0  XYZ
  end
  begin
     id 2 
     name lfemur
     direction 0.34202 -0.939693 0  
     length 7.3842  
     axis 0 0 20  XYZ
    dof rx ry rz
    limits (-160.0 20.0)
           (-70.0 70.0)
           (-60.0 70.0)
  end
  begin
     id 3 
     name ltibia
     direction 0.34202 -0.939693 0   
     length 7.50407   
     axis 0 0 20   XYZ
    dof rx
    limits (-10.0 170.0)
  end
  begin
     id 4 
     name lfoot
     direction 0.110749 -0.304281 0.946123   
     length 1.95925   
     axis -90 7.62852e-016 20   XYZ
    dof rx rz
    limits (-45.0 90.0)
           (-70.0 20.0)
  end
  begin
     id 5 
     name ltoes
     direction 1.53554e-011 -4.21843e-011 1   
     length 0.978318   
     axis -90 7.62852e-016 20   XYZ
    dof rx
    limits (-90.0 20.0)
  end
  begin
     id 6 
     name rhipjoint
     direction -0.488109 -0.791693 0.367385   
     length 2.31113  
     axis 0 0 0  XYZ 
  end
  begin
     id 7 
     name rfemur
     direction -0.34202 -0.939693 0   
     length 7.40965   
     axis 0 0 -20   XYZ
    dof rx ry rz
    limits (-160.0 20.0)
           (-70.0 70.0)
           (-70.0 60.0)
  end
  begin
     id 8 
     name rtibia
     direction -0.34202 -0.939693 0   
     length 7.55548   
     axis 0 0 -20   XYZ
    dof rx
    limits (-10.0 170.0)
 end
 begin
     id 9 
     name rfoot
     direction -0.127594 -0.350561 0.927808   
     length 2.07199  
     axis -90 -7.62852e-016 -20   XYZ
    dof rx rz
    limits (-45.0 90.0)
           (-20.0 70.0)
  end
  begin
     id 10 
     name rtoes
     direction -1.53542e-011 -4.21909e-011 1   
     length 1.02667   
     axis -90 -7.62852e-016 -20   XYZ
    dof rx
    limits (-90.0 20.0)
  end
  begin
     id 11 
     name lowerback
     direction -0.0103342 0.997298 -0.0727278   
     length 2.02836   
     axis 0 0 0   XYZ
    dof rx ry rz
    limits (-20.0 45.0)
           (-30.0 30.0)
           (-30.0 30.0)
  end
  begin
     id 12 
     name upperback
     direction 0.0171146 0.999786 -0.011606   
     length 2.03179   
     axis 0 0 0   XYZ
    dof rx ry rz
    limits (-20.0 45.0)
           (-30.0 30.0)
           (-30.0 30.0)
  end
  begin
     id 13 
     name thorax
     direction 0.0216927 0.999513 0.0224343   
     length 2.03882   
     axis 0 0 0   XYZ
    dof rx ry rz
    limits (-20.0 45.0)
           (-30.0 30.0)
           (-30.0 30.0)
  end
  begin
     id 14 
     name lowerneck
     direction 0.000989287 0.993907 0.110221   
     length 1.75428   
     axis 0 0 0   XYZ
    dof rx ry rz
    limits (-20.0 45.0)
           (-30.0 30.0)
           (-30.0 30.0)
  end
  begin
     id 15 
     name upperneck
     direction -0.0172474 0.994813 -0.100253   
     length 1.77058   
     axis 0 0 0   XYZ
    dof rx ry rz
    limits (-20.0 45.0)
           (-30.0 30.0)
           (-30.0 30.0)
  end
  begin
     id 16
     name head
     direction -0.00486455 0.99894 -0.0457663  
     length 1.77427  
     axis 0 0 0   XYZ
    dof rx ry rz
    limits (-20.0 45.0)
           (-30.0 30.0)
           (-30.0 30.0)
  end
  begin
     id 17 
     name lclavicle
     direction 0.927314 0.333734 -0.169441  
     length 3.97584  
     axis 0 0 0   XYZ
    dof ry rz
    limits (-20.0 10.0)
           (0.0 20.0)
  end
  begin
     id 18 
     name lhumerus
     direction 1 -4.48965e-011 -3.25313e-028   
     length 4.76468   
     axis 180 -30 -90   XYZ
    dof rx ry rz
    limits (-60.0 90.0)
           (-90.0 90.0)
           (-90.0 90.0)
  end
  begin
     id 19
     name lradius
     direction 1 -4.48969e-011 -2.8465e-028   
     length 3.52712   
     axis -180 -30 -90   XYZ
    dof rx
    limits (-10.0 170.0)
  end
  begin
     id 20
     name lwrist
     direction 1 -4.4896e-011 -7.78665e-028   
     length 1.76356   
     axis 1.91374e-015 90 90   XYZ
    dof ry
    limits (-180.0 0.0)
 end
  begin
     id 21 
     name lhand
     direction 1 -4.48959e-011 -1.55733e-027   
     length 0.859564   
     axis 9.9371e-016 90 90   XYZ
    dof rx rz
    limits (-90.0 90.0)
           (-45.0 45.0)
  end
  begin
     id 22 
     name lfingers
     direction 1 -4.48965e-011 -3.11466e-027   
     length 0.693002   
     axis 1.98742e-015 90 90   XYZ
    dof rx
    limits (0.0 90.0)
  end
  begin
     id 23
     name lthumb
     direction 0.707107 -6.34948e-011 0.707107   
     length 0.995017   
     axis -90 45 2.85299e-015   XYZ
    dof rx rz
    limits (-45.0 45.0)
           (-45.0 45.0)
  end
  begin
     id 24 
     name rclavicle
     direction -0.899388 0.348209 -0.264294   
     length 3.68366  
     axis 0 0 0   XYZ 
    dof ry rz
    limits (-10.0 20.0)
           (-20.0 0.0)
  end
  begin
     id 25 
     name rhumerus
     direction -1 -4.48965e-011 -3.01536e-027  
     length 4.90577   
     axis 180 30 90   XYZ
    dof rx ry rz
    limits (-90.0 60.0)
           (-90.0 90.0)
           (-90.0 90.0)
  end
  begin
     id 26 
     name rradius
     direction -1 -4.48966e-011 3.93291e-027   
     length 3.42692   
     axis -180 30 90   XYZ
    dof rx
    limits (-10.0 170.0)
  end
  begin
     id 27 
     name rwrist
     direction -1 -4.48969e-011 -7.78665e-028   
     length 1.71346   
     axis 1.91374e-015 -90 -90   XYZ
    dof ry
    limits (-180.0 0.0)
  end
  begin
     id 28
     name rhand
     direction -1 -4.48967e-011 -1.55733e-027   
     length 0.740957   
     axis 9.9371e-016 -90 -90   XYZ
    dof rx rz
    limits (-90.0 90.0)
           (-45.0 45.0)
  end
  begin
     id 29
     name rfingers
     direction -1 -4.48949e-011 -3.11466e-027   
     length 0.597378   
     axis 1.98742e-015 -90 -90   XYZ
    dof rx
    limits (0.0 90.0)
  end
  begin
     id 30
     name rthumb
     direction -0.707107 -6.34931e-011 0.707107   
     length 0.857719   
     axis -90 -45 -2.85299e-015   XYZ
    dof rx rz
    limits (-45.0 45.0)
           (-45.0 45.0)
  end
:hierarchy
  begin
    root lhipjoint rhipjoint lowerback
    lhipjoint lfemur
    lfemur ltibia
    ltibia lfoot
    lfoot ltoes
    rhipjoint rfemur
    rfemur rtibia
    rtibia rfoot
    rfoot rtoes
    lowerback upperback
    upperback thorax
    thorax lowerneck lclavicle rclavicle
    lowerneck upperneck
    upperneck head
    lclavicle lhumerus
    lhumerus lradius
    lradius lwrist
    lwrist lhand lthumb
    lhand lfingers
    rclavicle rhumerus
    rhumerus rradius
    rradius rwrist
    rwrist rhand rthumb
    rhand rfingers
  end

#!OML:ASF E:\I on waltz\AllaLogoMonkeySwing\Project 1\Capture day 1\Session 1\Subject1.ASF
:FULLY-SPECIFIED
:DEGREES
145
root 1.48027 6.95953 -1.49191 -25.6784 -3.88275 0.683515
lowerback 46.4946 2.84161 -1.2164
upperback 13.7279 2.92745 1.18033
thorax -5.91425 1.27823 0.662935
lowerneck -5.73966 -0.207846 -2.65429
upperneck 10.4565 -0.371878 3.29442
head 4.51664 -0.124116 1.57472
rclavicle -8.44835e-015 1.09332e-014
rhumerus -1.42435 -1.74437 -77.3045
rradius 62.7541
rwrist -14.1919
rhand -5.22459 -38.6643
rfingers 7.12502
rthumb 20.5776 -67.5937
lclavicle -8.44835e-015 1.09332e-014
lhumerus -9.21253 9.94912 86.6014
lradius 75.1033
lwrist 27.9556
lhand -12.3022 -10.4143
lfingers 7.12502
lthumb 13.7658 19.1103
rfemur -88.4037 -19.0642 28.312
rtibia 133.916
rfoot -21.5433 1.27491
rtoes 30.9231
lfemur -86.6447 33.282 -23.6895
ltibia 133.722
lfoot -31.3686 -14.8396
ltoes -10.4229
146
root 1.49304 6.94895 -1.5499 -26.7132 -4.09049 0.689911
lowerback 46.5342 2.74903 -1.07219
upperback 13.2809 2.90087 1.33099
thorax -6.43144 1.26313 0.750928
lowerneck -5.93902 -0.202484 -2.74027
upperneck 10.1505 -0.331669 3.16127
head 4.4439 -0.113101 1.54454
rclavicle -1.68967e-014 -1.47101e-014
rhumerus -3.12898 -2.24767 -77.6812
rradius 63.5713
rwrist -14.4254
rhand -4.74446 -39.598
rfingers 7.12502
rthumb 21.0389 -68.4767
lclavicle -1.68967e-014 -1.47101e-014
lhumerus -10.9144 10.2979 86.7847
lradius 76.2324
lwrist 28.9495
lhand -12.2114 -9.9819
lfingers 7.12502
lthumb 13.8532 19.5367
rfemur -86.9745 -19.5122 28.0968
rtibia 133.648
rfoot -21.6505 1.54308
rtoes 30.6842
lfemur -85.5476 34.0099 -23.1393
ltibia 133.498
lfoot -31.2477 -15.3989
ltoes -10.0744
147
root 1.50191 6.93691 -1.60007 -27.6947 -4.20744 0.713636
lowerback 46.4045 2.69845 -1.09636
upperback 12.9752 2.86054 1.54697
thorax -6.75841 1.2356 1.00619
lowerneck -6.22818 -0.18 -2.77181
upperneck 9.73061 -0.264452 2.97212
head 4.3466 -0.088465 1.48635
rclavicle 3.77691e-015 -9.93923e-015
rhumerus -4.64388 -2.28699 -77.8191
rradius 64.5313
rwrist -15.1691
rhand -4.99747 -40.0146
rfingers 7.12502
rthumb 20.7958 -68.9201
lclavicle 3.77691e-015 -9.93923e-015
lhumerus -12.5987 10.4402 86.8731
lradius 77.6813
lwrist 28.9839
lhand -12.3791 -10.1219
lfingers 7.12502
lthumb 13.6917 19.4077
rfemur -85.5942 -20.0201 27.9394
rtibia 133.426
rfoot -22.0339 1.55667
rtoes 29.1407
lfemur -84.427 34.5501 -22.5986
ltibia 133.258
lfoot -31.1437 -15.9824
ltoes -9.5456
148
root 1.50997 6.92146 -1.64035 -28.5727 -4.15656 0.934976
lowerback 46.0522 2.58223 -1.23717
upperback 12.7389 2.67156 1.55809
thorax -6.93955 1.14707 1.17019
lowerneck -6.60769 -0.133569 -2.58549
upperneck 9.41614 -0.189992 2.79462
head 4.30436 -0.0509967 1.39538
rclavicle -1.27222e-014 6.75868e-015
rhumerus -6.06218 -2.08966 -78.1129
rradius 65.4995
rwrist -16.1733
rhand -5.88653 -39.5996
rfingers 7.12502
rthumb 19.9414 -68.5964
lclavicle -1.27222e-014 6.75868e-015
lhumerus -14.3867 10.3927 86.6592
lradius 79.5343
lwrist 28.5947
lhand -12.6994 -10.4503
lfingers 7.12502
lthumb 13.383 19.0998
rfemur -84.5043 -20.7015 27.6761
rtibia 133.347
rfoot -22.6504 1.10375
rtoes 25.2792
lfemur -83.3737 34.7411 -22.3776
ltibia 133.016
lfoot -31.0106 -16.3541
ltoes -9.14502
149
root 1.51716 6.90685 -1.68081 -29.4472 -4.19012 1.04838
lowerback 45.6074 2.48344 -1.33154
upperback 12.6293 2.52788 1.62031
thorax -6.9551 1.07777 1.35026
lowerneck -7.03965 -0.0709573 -2.35955
upperneck 9.02278 -0.093119 2.57172
head 4.24369 -0.00326126 1.28309
rclavicle 3.00165e-014 3.97569e-015
rhumerus -7.29359 -2.08135 -78.4034
rradius 66.5752
rwrist -16.4224
rhand -6.07959 -39.0433
rfingers 7.12502
rthumb 19.7558 -68.0594
lclavicle 3.00165e-014 3.97569e-015
lhumerus -15.9898 10.3998 86.5465
lradius 81.4769
lwrist 28.1953
lhand -13.0942 -11.0388
lfingers 7.12502
lthumb 13.0024 18.536
rfemur -83.4494 -21.0684 27.1633
rtibia 133.182
rfoot -22.8461 1.7272
rtoes 25.6208
lfemur -82.4036 35.0103 -22.0031
ltibia 132.815
lfoot -30.803 -16.7951
ltoes -8.56384
150
root 1.52262 6.88822 -1.71462 -30.2923 -4.29861 1.05667
lowerback 45.0891 2.39589 -1.37308
upperback 12.6138 2.42536 1.73571
thorax -6.84591 1.02551 1.54545
lowerneck -7.50782 0.023953 -2.03669
upperneck 8.58161 0.0472036 2.22154
head 4.17179 0.0627486 1.11327
rclavicle -1.19271e-015 -7.95139e-015
rhumerus -8.28199 -2.26625 -78.5984
rradius 67.7042
rwrist -15.9225
rhand -5.27628 -39.1056
rfingers 7.12502
rthumb 20.5279 -68.0403
lclavicle -1.19271e-015 -7.95139e-015
lhumerus -17.3242 10.5698 86.5542
lradius 83.4211
lwrist 27.8166
lhand -13.4045 -11.3399
lfingers 7.12502
lthumb 12.7033 18.2537
rfemur -82.3057 -21.3735 26.7779
rtibia 133.078
rfoot -22.9702 2.27228
rtoes 26.7236
lfemur -81.546 35.4325 -21.4998
ltibia 132.703
lfoot -30.6546 -17.2855
ltoes -7.64828
151
root 1.52583 6.86871 -1.74348 -31.0232 -4.28433 1.11204
lowerback 44.472 2.30526 -1.49487
upperback 12.5919 2.28626 1.83584
thorax -6.71476 0.956043 1.78099
lowerneck -7.92203 0.119278 -1.66639
upperneck 8.20571 0.184354 1.792
head 4.11394 0.123881 0.909391
rclavicle -5.36719e-015 -5.56597e-015
rhumerus -9.22063 -2.36646 -78.6851
rradius 68.7778
rwrist -15.6187
rhand -4.69982 -39.4511
rfingers 7.12502
rthumb 21.0818 -68.3251
lclavicle -5.36719e-015 -5.56597e-015
lhumerus -18.5939 10.8316 86.579
lradius 85.3332
lwrist 27.4909
lhand -13.5848 -11.4218
lfingers 7.12502
lthumb 12.5294 18.1825
rfemur -81.4952 -21.7101 26.3547
rtibia 133.031
rfoot -22.8852 2.92236
rtoes 28.0066
lfemur -80.7872 35.7429 -21.1887
ltibia 132.615
lfoot -30.6242 -17.5341
ltoes -7.24095
152
root 1.52609 6.84545 -1.76548 -31.7124 -4.42546 0.91034
lowerback 43.9287 2.19571 -1.37767
upperback 12.5277 2.23317 2.02302
thorax -6.64797 0.928088 1.9496
lowerneck -8.1646 0.196665 -1.48985
upperneck 7.77086 0.298562 1.53666
head 4.00387 0.174828 0.796904
rclavicle -7.95139e-015 -1.51076e-014
rhumerus -10.3605 -2.4813 -78.6925
rradius 70.0431
rwrist -15.5282
rhand -4.70207 -39.5543
rfingers 7.12502
rthumb 21.0796 -68.4285
lclavicle -7.95139e-015 -1.51076e-014
lhumerus -19.9023 11.0508 86.6317
lradius 87.023
lwrist 27.1784
lhand -13.8269 -12.0776
lfingers 7.12502
lthumb 12.296 17.5409
rfemur -80.6796 -21.7637 26.3654
rtibia 132.978
rfoot -22.8436 3.11108
rtoes 28.6836
lfemur -80.1738 36.4233 -20.5492
ltibia 132.636
lfoot -30.707 -17.952
ltoes -7.32371
153
root 1.52698 6.81743 -1.77972 -32.3221 -4.56471 0.678609
lowerback 43.3779 2.09504 -1.22309
upperback 12.4484 2.20723 2.22902
thorax -6.59399 0.913825 2.10716
lowerneck -8.42392 0.257038 -1.56662
upperneck 7.35978 0.390081 1.59707
head 3.90796 0.221906 0.834832
rclavicle -1.25234e-014 4.37326e-015
rhumerus -11.7196 -2.78364 -78.7211
rradius 71.7243
rwrist -15.2067
rhand -5.0204 -39.4632
rfingers 7.12502
rthumb 20.7738 -68.3712
lclavicle -1.25234e-014 4.37326e-015
lhumerus -21.202 11.0888 86.7422
lradius 88.5627
lwrist 26.4178
lhand -14.6144 -13.1349
lfingers 7.12502
lthumb 11.5366 16.5276
rfemur -79.8897 -21.8401 26.4849
rtibia 132.971
rfoot -22.9883 3.00705
rtoes 28.7074
lfemur -79.6802 37.0733 -19.9208
ltibia 132.7
lfoot -30.7903 -18.4444
ltoes -7.24495
154
root 1.52903 6.78861 -1.78912 -32.8821 -4.56926 0.534582
lowerback 42.708 1.97556 -1.16276
upperback 12.4331 2.11076 2.36665
thorax -6.42729 0.867028 2.27038
lowerneck -8.45343 0.314804 -1.30504
upperneck 6.69277 0.462873 1.35293
head 3.67618 0.254902 0.706135
rclavicle -6.36111e-015 -7.15625e-015
rhumerus -13.1929 -3.05433 -78.8515
rradius 73.8833
rwrist -14.7975
rhand -5.98481 -39.3192
rfingers 7.12502
rthumb 19.847 -68.3258
lclavicle -6.36111e-015 -7.15625e-015
lhumerus -22.4465 10.9806 86.8503
lradius 90.1458
lwrist 24.9057
lhand -16.0814 -14.3162
lfingers 7.12502
lthumb 10.1217 15.4204
rfemur -79.2496 -22.0779 26.4431
rtibia 133.008
rfoot -23.0609 2.98159
rtoes 28.6991
lfemur -79.2112 37.4275 -19.4759
ltibia 132.751
lfoot -30.7559 -18.8558
ltoes -6.81237
155
root 1.5325 6.76916 -1.80095 -33.4989 -4.6975 0.367595
lowerback 42.063 1.87033 -1.02953
upperback 12.5762 2.05169 2.49395
thorax -6.08575 0.836607 2.37068
lowerneck -8.6687 0.390541 -0.763922
upperneck 5.95831 0.555022 0.745223
head 3.46028 0.288707 0.411429
rclavicle -8.74653e-015 -1.11319e-014
rhumerus -14.5533 -3.15612 -79.0101
rradius 76.4782
rwrist -14.4818
rhand -7.26089 -39.6382
rfingers 7.12502
rthumb 18.6199 -68.7671
lclavicle -8.74653e-015 -1.11319e-014
lhumerus -23.479 10.8066 87.0425
lradius 91.7919
lwrist 23.0137
lhand -17.8425 -15.8472
lfingers 7.12502
lthumb 8.42236 13.9649
rfemur -78.8017 -21.9085 26.5193
rtibia 132.915
rfoot -22.6244 2.75394
rtoes 28.5697
lfemur -78.5746 37.9682 -18.8574
ltibia 132.768
lfoot -30.8044 -19.3295
ltoes -6.30999
156
root 1.53828 6.76643 -1.82459 -34.0709 -4.74905 0.426573
lowerback 41.5204 1.83952 -1.07583
upperback 12.7486 2.00392 2.57825
thorax -5.74107 0.808685 2.51142
lowerneck -9.83382 0.487814 -0.881578
upperneck 6.02659 0.701071 0.832867
head 3.71161 0.363616 0.477019
rclavicle 6.16232e-015 -7.15625e-015
rhumerus -15.8525 -3.14548 -79.1971
rradius 79.357
rwrist -14.1556
rhand -8.55513 -40.2081
rfingers 7.12502
rthumb 17.3746 -69.4516
lclavicle 6.16232e-015 -7.15625e-015
lhumerus -24.3777 10.5177 87.3828
lradius 93.4673
lwrist 21.3068
lhand -19.7047 -17.6676
lfingers 7.12502
lthumb 6.62486 12.2087
rfemur -79.0476 -21.3304 26.5227
rtibia 132.608
rfoot -21.3757 2.3971
rtoes 28.1347
lfemur -77.7932 38.3245 -18.5432
ltibia 132.612
lfoot -30.9441 -19.589
ltoes -6.20976
157
root 1.54921 6.75361 -1.83509 -34.3458 -4.53111 0.738148
lowerback 40.886 1.82781 -1.34241
upperback 12.7292 1.89403 2.56871
thorax -5.57738 0.753814 2.68874
lowerneck -11.1326 0.568471 -1.45853
upperneck 6.51368 0.844678 1.4816
head 4.1407 0.453116 0.821014
rclavicle -5.76476e-015 -7.15625e-015
rhumerus -17.4403 -2.98606 -79.4372
rradius 82.4301
rwrist -13.8238
rhand -10.0351 -39.6538
rfingers 7.12502
rthumb 15.9498 -69.0171
lclavicle -5.76476e-015 -7.15625e-015
lhumerus -25.4458 9.98177 87.775
lradius 95.1894
lwrist 20.0199
lhand -21.5675 -19.5477
lfingers 7.12502
lthumb 4.82635 10.3774
rfemur -78.9621 -21.6037 25.938
rtibia 132.637
rfoot -21.2254 2.78153
rtoes 28.5451
lfemur -77.5324 38.0747 -18.9224
ltibia 132.549
lfoot -30.8585 -19.4843
ltoes -6.14901
158
root 1.57052 6.7441 -1.84636 -34.216 -3.90104 1.57469
lowerback 39.9629 1.87888 -2.09048
upperback 12.5543 1.67608 2.37369
thorax -5.4882 0.647449 2.96158
lowerneck -12.0634 0.634942 -1.94775
upperneck 7.20184 0.958236 2.11066
head 4.09336 0.539188 1.03012
rclavicle 1.98785e-016 -9.54166e-015
rhumerus -19.1997 -2.4068 -79.7499
rradius 85.7426
rwrist -13.5488
rhand -11.4029 -38.5527
rfingers 7.12502
rthumb 14.6324 -68.0165
lclavicle 1.98785e-016 -9.54166e-015
lhumerus -26.5749 9.28123 88.1979
lradius 96.9373
lwrist 19.0646
lhand -23.1883 -21.6947
lfingers 7.12502
lthumb 3.26125 8.26015
rfemur -79.6129 -22.2279 24.696
rtibia 132.75
rfoot -20.9496 3.50087
rtoes 28.8748
lfemur -77.7243 36.8258 -20.4652
ltibia 132.411
lfoot -30.3633 -18.7932
ltoes -5.62074
159
root 1.57702 6.73502 -1.84866 -34.4016 -3.92981 1.62751
lowerback 39.3177 1.83926 -2.1218
upperback 12.5038 1.63231 2.40195
thorax -5.344 0.626745 3.03177
lowerneck -11.3671 0.936871 -2.9842
upperneck 5.39189 1.42136 3.36463
head 3.76783 0.796045 1.76208
rclavicle 1.51076e-014 -9.54166e-015
rhumerus -20.83 -1.28756 -80.2145
rradius 89.245
rwrist -13.2656
rhand -12.2866 -37.7994
rfingers 7.12502
rthumb 13.7808 -67.3229
lclavicle 1.51076e-014 -9.54166e-015
lhumerus -27.5645 8.56924 88.6584
lradius 98.5826
lwrist 18.0747
lhand -24.433 -24.081
lfingers 7.12502
lthumb 2.05915 5.88884
rfemur -79.501 -22.1572 24.5552
rtibia 132.769
rfoot -20.8554 3.56186
rtoes 29.1661
lfemur -77.6013 37.0524 -20.4511
ltibia 132.441
lfoot -30.3325 -18.9669
ltoes -5.26082
